#N canvas 88 38 981 597 10;
#X obj 324 197 loadbang;
#X obj 58 160 snapshot~;
#X msg 254 280 0;
#X obj 254 370 s bela_guiOut;
#X obj 324 240 s clock;
#X obj 68 132 r clock;
#X obj 134 160 snapshot~;
#X obj 145 136 r clock;
#X text 274 50 ............................;
#X text 274 60 . ____ ._____ _ .......___ .;
#X text 274 70 .| __ )| ____| |....../ _ |.;
#X text 274 90 .| |_) | |___| |___ / ___ |.;
#X text 274 100 .|____/|_____|_____/_/..._|.io;
#X text 274 110 ............................;
#X text 274 80 .| __ || __|.| |...../ _| |.;
#X text 364 370 send to the Bela GUI;
#X obj 324 219 metro 30;
#X obj 58 93 adc~ 3;
#X obj 134 93 adc~ 4;
#X obj 53 265 snapshot~;
#X obj 63 237 r clock;
#X obj 129 265 snapshot~;
#X obj 140 241 r clock;
#X obj 53 198 adc~ 5;
#X obj 134 200 adc~ 6;
#X obj 254 340 pack f f f f f f f f f, f 26;
#X obj 44 377 snapshot~;
#X obj 54 349 r clock;
#X obj 120 377 snapshot~;
#X obj 131 353 r clock;
#X obj 44 477 snapshot~;
#X obj 54 449 r clock;
#X obj 120 477 snapshot~;
#X obj 131 453 r clock;
#X obj 44 310 adc~ 7;
#X obj 120 310 adc~ 8;
#X obj 44 410 adc~ 9;
#X obj 120 410 adc~ 10;
#X connect 0 0 16 0;
#X connect 1 0 25 1;
#X connect 2 0 25 0;
#X connect 5 0 1 0;
#X connect 5 0 2 0;
#X connect 6 0 25 2;
#X connect 7 0 6 0;
#X connect 16 0 4 0;
#X connect 17 0 1 0;
#X connect 18 0 6 0;
#X connect 19 0 25 3;
#X connect 20 0 19 0;
#X connect 21 0 25 4;
#X connect 22 0 21 0;
#X connect 23 0 19 0;
#X connect 24 0 21 0;
#X connect 25 0 3 0;
#X connect 26 0 25 5;
#X connect 27 0 26 0;
#X connect 28 0 25 6;
#X connect 29 0 28 0;
#X connect 30 0 25 7;
#X connect 31 0 30 0;
#X connect 32 0 25 8;
#X connect 33 0 32 0;
#X connect 34 0 26 0;
#X connect 35 0 28 0;
#X connect 36 0 30 0;
#X connect 37 0 32 0;
